<svg width="369" height="535" viewBox="0 0 369 535" fill="none" xmlns="http://www.w3.org/2000/svg">
<path d="M360.096 171.061C350.233 162.931 339.353 168.475 335.147 172.264L328.454 176.861L346.954 207.125L354.233 207.125C369.784 200.238 372.425 181.224 360.096 171.061Z" fill="#F4F0ED" stroke="#A9A29C" stroke-width="2" stroke-linecap="round"/>
<path d="M333.229 113.655C320.06 103.035 307.572 109.258 302.058 114.331L296.454 116.361L324.954 165.361L328.072 161.39C348.554 152.056 349.689 126.929 333.229 113.655Z" fill="#F4F0ED" stroke="#A9A29C" stroke-width="2" stroke-linecap="round"/>
<path d="M306.168 58.9281C292.953 48.3662 274.992 57.5133 269.501 62.6105L295.454 108.361C318.954 98.8608 322.686 72.1304 306.168 58.9281Z" fill="#F4F0ED" stroke="#A9A29C" stroke-width="2" stroke-linecap="round"/>
<rect x="20.5732" y="123.063" width="250" height="250" transform="rotate(-29.1313 20.5732 123.063)" fill="#F4F0ED" stroke="#A9A29C" stroke-width="2" stroke-linecap="round"/>
<path d="M283.794 86.5655C277.256 77.0269 280.426 66.4901 282.829 62.4139L304.458 95.3948C300.295 96.4261 290.332 96.1041 283.794 86.5655Z" fill="#F4F0ED"/>
<path d="M310.735 141.195C304.238 131.628 307.455 121.105 309.875 117.039L331.36 150.114C327.192 151.127 317.232 150.762 310.735 141.195Z" fill="#F4F0ED"/>
<path d="M342.877 191.687C338.046 184.405 340.562 176.481 342.424 173.429L358.389 198.593C355.231 199.324 347.708 198.968 342.877 191.687Z" fill="#F4F0ED"/>
<path d="M270.886 58.1032L249.99 22.1633C267.98 -0.913406 298.493 46.2407 270.886 58.1032Z" fill="#F4F0ED" stroke="#A9A29C" stroke-width="2" stroke-linecap="round"/>
<path d="M56.6086 527.729L287.237 530.854C290.228 522.825 288.676 375.861 287.652 347.794C303.98 326.115 300.049 293.98 293.6 275.246C300.402 274.888 317.715 250.474 326.454 238.861C319.454 238.818 144.27 338.234 146.258 330.193C118.439 219.665 67.9043 215.861 67.9537 207.861C68.1055 183.234 47.2728 137.359 16.2068 148.033C6.32557 151.428 0.48074 160.651 2.73429 171.45C6.17972 187.961 14.1934 197.161 15.7958 214.659C17.2609 230.659 20.8851 245.302 21.2447 262.193C21.6905 283.126 36.0548 313.322 49.8391 329.598C67.1782 350.073 56.7621 502.836 56.6086 527.729Z" fill="#F4F0ED"/>
<path d="M146.258 330.193C144.27 338.234 317.815 240.395 324.815 240.438C316.076 252.051 300.402 274.888 293.6 275.246C303.26 303.306 307.268 361.432 246.018 369.454M146.258 330.193C118.439 219.665 68.4041 217.361 68.4534 209.361C68.6053 184.734 47.2726 137.359 16.2065 148.033C6.32535 151.428 0.48052 160.651 2.73407 171.45C6.1795 187.961 14.1932 197.161 15.7955 214.659C17.2607 230.659 20.8848 245.302 21.2445 262.193C21.6902 283.126 36.0545 313.322 49.8388 329.598C67.178 350.073 56.7619 505.836 56.6084 530.728L287.237 533.854C290.228 525.825 288.676 375.861 287.652 347.794M146.258 330.193L141.18 342.807" stroke="#A9A29C" stroke-width="2" stroke-linecap="round"/>
<path d="M282.829 62.4139C280.426 66.4901 277.256 77.0269 283.794 86.5655C290.332 96.1041 300.295 96.4261 304.458 95.3948" stroke="#A9A29C" stroke-width="2" stroke-linecap="round"/>
<path d="M310.038 119.044C307.439 122.855 304.003 132.73 311.053 141.741C318.103 150.752 328.861 151.131 333.359 150.194" stroke="#A9A29C" stroke-width="2" stroke-linecap="round"/>
<path d="M342.531 174.945C340.536 177.803 337.86 185.236 343.114 192.102C348.367 198.967 356.492 199.341 359.898 198.67" stroke="#A9A29C" stroke-width="2" stroke-linecap="round"/>
<path d="M3.14111 169.289C10.3294 169.289 13.9091 175.928 15.7553 182.139C17.0851 186.613 15.3031 191.028 11.326 193.243" stroke="#A9A29C" stroke-width="2" stroke-linecap="round"/>
</svg>
